<svg id="Layer_1" data-name="Layer 1" xmlns="http://www.w3.org/2000/svg" xmlns:xlink="http://www.w3.org/1999/xlink" viewBox="0 0 512 512"><defs><clipPath id="clip-path"><circle cx="256" cy="256" r="256" transform="translate(-106.04 256) rotate(-45)" fill="none"/></clipPath><clipPath id="clip-path-2"><path d="M385.12,422.9c-23.9-16-52.76-22.41-80.95-28.07a11.52,11.52,0,0,1-4.9-1.8c-2.36-1.85,3-64.11,0-91.34L259,305.46l-40.24-3.77c-3,27.23,2.36,89.49,0,91.34a11.43,11.43,0,0,1-4.89,1.8c-28.19,5.66-57.06,12.07-80.95,28.07s-42,43.9-38.15,72.39c24-.12,90.95.31,158.78,1.21v.14l5.45-.07,5.44.07v-.14c67.84-.9,134.8-1.33,158.79-1.21C427.1,466.8,409,438.89,385.12,422.9Z" fill="#fbd1b9"/></clipPath></defs><g clip-path="url(#clip-path)"><path d="M184,279c-21.63-51.93-19.46-95.55-11.3-112.19,10.94-22.31,37.19-32.2,61.54-37.15,22.7-4.62,94.88,5.2,109.18,26,15.87,23.08,16.59,78.62-6.6,116.4a23.2,23.2,0,0,1-10.61,8.91,31.19,31.19,0,0,1-9.24,2,204,204,0,0,1-36.65.39Z" fill="#a46e4a"/><path d="M385.12,422.9c-23.9-16-52.76-22.41-80.95-28.07a11.52,11.52,0,0,1-4.9-1.8c-2.36-1.85,3-64.11,0-91.34L259,305.46l-40.24-3.77c-3,27.23,2.36,89.49,0,91.34a11.43,11.43,0,0,1-4.89,1.8c-28.19,5.66-57.06,12.07-80.95,28.07s-42,43.9-38.15,72.39c24-.12,90.95.31,158.78,1.21v.14l5.45-.07,5.44.07v-.14c67.84-.9,134.8-1.33,158.79-1.21C427.1,466.8,409,438.89,385.12,422.9Z" fill="#fbd1b9"/><g clip-path="url(#clip-path-2)"><path d="M165.24,300.82c15.87-10.23,16.55-15.13,17.31-10.23,3.75,24.1,41.84,82.15,76.46,82.15,44.82,0,70.82-75.65,75-94.72-51.8,7.41-104.26,14.82-156.21,8.59l4.28,4Z" fill="#dba78a"/></g><path d="M199.34,168.75c-9.25,31.24-7,86,0,117.81,0,.17.07.34.11.51,3.78,17.08,9.81,34.14,21.18,47.44s28.88,22.29,46.22,19.93c16.76-2.28,30.83-14.73,39-29.55s11.33-31.83,13.61-48.6c4-29.19,2.94-106.73.13-107-36.11-3-85.13-10.45-120.26-1.59Z" fill="#fbd1b9"/><path d="M318,264.2c.89-6.43,8.63-10.45,14.84-8.56s10.31,8.33,10.77,14.81-2.16,12.84-5.88,18.16c-6.19,8.88-17.08,15.77-27.55,13a371,371,0,0,1,7.14-39.59Z" fill="#fbd1b9"/><path d="M200.29,264.2c-.88-6.43-8.62-10.45-14.83-8.56s-10.31,8.33-10.78,14.81,2.17,12.84,5.88,18.16c6.19,8.88,17.09,15.77,27.56,13A371,371,0,0,0,201,262.05Z" fill="#fbd1b9"/><path d="M172.91,214.7l55.76,2.42a54.33,54.33,0,0,1,5.91-24.79c.67,6.83,1.34,19.28,5.68,24.6,0,0,18.75,0,19.13-.23a38.76,38.76,0,0,1,6.6-22.19c.24-.66,6.1,22.29,6,23.86-.2,3.37,43.64,1.24,57.05.51a157.8,157.8,0,0,0,1.09-37.5c-.56-6.63-1.69-13.58-5.88-18.75-5.67-7-15.39-8.93-24.31-10.1a388.55,388.55,0,0,0-94.5-.8c-4.13.48-8.51,1.12-11.68,3.82-2.38,2-3.76,5-5,7.82a178.68,178.68,0,0,0-13.3,49.33Z" fill="#a46e4a"/><path d="M325.9,149.78c.7-9,2.26-18.92,9.09-24.89,8.89-7.77,23.49-5.18,32.24,2.74s12.9,19.65,16,31c1.11,4.13,2.14,8.43,1.44,12.65-1.46,8.89-10.73,15.14-19.74,15s-17.3-5.58-22.87-12.66Z" fill="#a46e4a"/><path d="M177.09,161.6a22.37,22.37,0,0,0-38.52-11c-9.66,10.57-7.12,27.24-2.48,40.79,1.29,3.77,2.73,7.57,5.21,10.69,5.44,6.84,15.5,9.19,23.75,6.34s14.51-10.31,16.87-18.72Z" fill="#a46e4a"/><path d="M176.47,155.06q-7,27.75-11.73,56c-.45,2.72,3.72,3.9,4.17,1.15q4.68-28.25,11.74-56c.68-2.7-3.49-3.85-4.18-1.15Z" fill="#87c3a9"/><path d="M317.24,141a353.3,353.3,0,0,1,36.45,46.74c1.52,2.32,5.27.15,3.74-2.19A361.14,361.14,0,0,0,320.3,138c-1.89-2.05-4.95,1-3.06,3.06Z" fill="#87c3a9"/><path d="M144.39,155.72A66.41,66.41,0,0,0,147,184.35c.84,2.65,5,1.52,4.18-1.15a63.48,63.48,0,0,1-2.44-27.48,2.17,2.17,0,0,0-2.16-2.17,2.22,2.22,0,0,0-2.16,2.17Z" fill="#5b371e"/><path d="M155.58,160.85a29.62,29.62,0,0,0,.53,19,2.22,2.22,0,0,0,2.66,1.51,2.18,2.18,0,0,0,1.51-2.66,25.74,25.74,0,0,1-.53-16.69c.83-2.67-3.35-3.81-4.17-1.15Z" fill="#5b371e"/><path d="M345.57,134.17a22.88,22.88,0,0,1,11.2,18.56c.12,2.78,4.44,2.79,4.33,0a27.36,27.36,0,0,0-13.34-22.3c-2.41-1.41-4.59,2.33-2.19,3.74Z" fill="#5b371e"/><path d="M363.32,140.27A103.35,103.35,0,0,1,370,166a2.23,2.23,0,0,0,2.16,2.17,2.19,2.19,0,0,0,2.17-2.17,107.82,107.82,0,0,0-6.84-26.84,2.22,2.22,0,0,0-2.66-1.51,2.19,2.19,0,0,0-1.52,2.66Z" fill="#5b371e"/><path d="M250,132.78c1.4,6.41,3.36,12.68,4.76,19.09a2.16,2.16,0,1,0,4.17-1.16c-1.4-6.4-3.35-12.67-4.76-19.08a2.16,2.16,0,0,0-4.17,1.15Z" fill="#5b371e"/><path d="M192.81,199.76a76.55,76.55,0,0,1,43.73-40.1c19.88-7,42.09-4.85,60.55,5.21a75.2,75.2,0,0,1,14.24,10,100,100,0,0,1,13.27,15.33c1.63,2.21,5.39.06,3.73-2.19a112.69,112.69,0,0,0-12.11-14.5,79.18,79.18,0,0,0-13.11-10.17A81.47,81.47,0,0,0,272.06,152a79.66,79.66,0,0,0-83,45.55c-1.14,2.52,2.59,4.72,3.74,2.19Z" fill="#5b371e"/><path d="M215.29,182.24q-.89,12.51-1.78,25c-.2,2.78,4.13,2.77,4.33,0q.89-12.51,1.78-25c.2-2.78-4.13-2.77-4.33,0Z" fill="#5b371e"/><path d="M282.2,184A87.64,87.64,0,0,1,287,214.63c-.06,2.78,4.27,2.78,4.33,0a91.07,91.07,0,0,0-5-31.82c-.91-2.62-5.09-1.49-4.17,1.15Z" fill="#5b371e"/><path d="M293.08,195.47q.92,10.31,1.82,20.6a2.22,2.22,0,0,0,2.17,2.16,2.18,2.18,0,0,0,2.16-2.16q-.92-10.31-1.82-20.6a2.23,2.23,0,0,0-2.17-2.16,2.17,2.17,0,0,0-2.16,2.16Z" fill="#5b371e"/><path d="M309,199.21a35.7,35.7,0,0,0-1,16,2.18,2.18,0,0,0,2.66,1.51,2.22,2.22,0,0,0,1.51-2.67,31.06,31.06,0,0,1,1-13.67,2.16,2.16,0,0,0-4.17-1.15Z" fill="#5b371e"/><path d="M242.64,177.82q.92,14,1.84,28c.18,2.77,4.51,2.79,4.33,0q-.93-14-1.84-28c-.19-2.77-4.52-2.79-4.33,0Z" fill="#5b371e"/><path d="M250.28,183.69q.9,7.35,1.81,14.69a2.23,2.23,0,0,0,2.16,2.17,2.17,2.17,0,0,0,2.16-2.17l-1.8-14.69a2.22,2.22,0,0,0-2.16-2.16,2.18,2.18,0,0,0-2.17,2.16Z" fill="#5b371e"/><path d="M341.61,127.19c9.65-4.55,21.08-1.52,29.33,4.55C378.77,137.5,386.8,146.53,384,157a18.05,18.05,0,0,1-9.55,11.6c-2.51,1.21-.32,4.95,2.18,3.74,10.44-5.06,14.94-17.89,10.41-28.43-2.41-5.6-6.76-10.17-11.44-14a40.82,40.82,0,0,0-16.14-8.3,30.08,30.08,0,0,0-20,1.83c-2.52,1.19-.32,4.92,2.18,3.74Z" fill="#a46e4a"/><path d="M145,145.69a18.28,18.28,0,0,0-14.26,7c-3.88,4.79-5.44,10.94-5.62,17-.33,11.11,4,23.43,14.42,28.79,5.34,2.75,11.76,3.55,17.4,1.25,2.55-1,1.43-5.23-1.15-4.18-8.7,3.55-18.08-1.32-22.53-9.07-4.67-8.16-5.57-20.21-.88-28.56,2.57-4.58,7.23-8,12.62-7.92,2.79,0,2.79-4.29,0-4.33Z" fill="#a46e4a"/><path d="M320.7,213.43c7.25,17.93-1.49,37.88-3.46,57.12a81.15,81.15,0,0,0,4.37,35.63c2.69,7.46,6.48,14.55,8.28,22.26S331.17,345,326,351c7.83-6.26,9.63-17.65,7.89-27.52s-6.31-19-9.1-28.62a81.64,81.64,0,0,1,7.08-61.8Z" fill="#a46e4a"/><path d="M192.5,210.23a147.57,147.57,0,0,0,5,56.4c2.32,8.05,5.34,15.92,7,24.14a73.58,73.58,0,0,1-14.12,58.71c7.86-22.05,14.95-46.26,7.52-68.47-3.47-10.4-10-19.66-13-30.22-3.56-12.65-1.81-26.22-4.23-39.14Z" fill="#a46e4a"/><path d="M224.1,266c0,4-3,7.21-6.6,7.21s-6.6-3.23-6.6-7.21,2.95-7.21,6.6-7.21S224.1,262,224.1,266Z" fill="#1a1a1a"/><path d="M301.53,266c0,4-3,7.21-6.6,7.21s-6.6-3.23-6.6-7.21,2.95-7.21,6.6-7.21S301.53,262,301.53,266Z" fill="#1a1a1a"/><path d="M251.68,252.19a44.08,44.08,0,0,0-10.15,39.63,2.19,2.19,0,0,0,2.66,1.51l11.87-4.24c2.6-.93,1.48-5.12-1.15-4.18L243,289.15l2.66,1.52a39.54,39.54,0,0,1,9-35.42c1.87-2.06-1.18-5.12-3.06-3.06Z" fill="#a46e4a"/><path d="M248.64,306c9.08,5.55,21.88,2.45,27.57-6.49,1.49-2.35-2.25-4.53-3.74-2.18-4.45,7-14.62,9.23-21.64,4.94-2.39-1.46-4.57,2.28-2.19,3.73Z" fill="#a46e4a"/><path d="M208.45,235.13a35.79,35.79,0,0,1,12.34-1.54c2.68.13,5.48.63,7.56,2.32s3.13,4.88,1.71,7.16-4.58,2.73-7.27,2.49a24.35,24.35,0,0,1-16.21-8.44Z" fill="#a46e4a"/><path d="M311.07,238.26a35.82,35.82,0,0,1-12.35,1.54c-2.67-.13-5.47-.63-7.55-2.32s-3.13-4.88-1.71-7.15,4.57-2.74,7.26-2.5a24.32,24.32,0,0,1,16.22,8.45Z" fill="#a46e4a"/><path d="M319.21,284a73.19,73.19,0,0,1,18.16-9.92,2.23,2.23,0,0,0,1.51-2.66,2.18,2.18,0,0,0-2.66-1.52A76.94,76.94,0,0,0,317,280.28a2.23,2.23,0,0,0-.78,3,2.18,2.18,0,0,0,3,.77Z" fill="#a46e4a"/><path d="M325.71,278.79a11.35,11.35,0,0,1,1.59,1.66L327,280a11.93,11.93,0,0,1,1.49,2.53l-.22-.52a11.36,11.36,0,0,1,.7,2.42,2.18,2.18,0,0,0,1,1.29,2.26,2.26,0,0,0,1.67.22,2.22,2.22,0,0,0,1.29-1,2.46,2.46,0,0,0,.22-1.67,13.11,13.11,0,0,0-4.34-7.55,2.32,2.32,0,0,0-1.53-.64,2.17,2.17,0,0,0-1.53,3.7Z" fill="#a46e4a"/><path d="M182.23,271.43a25.85,25.85,0,0,1,6.61,6.33,81.65,81.65,0,0,1,5.31,8.42,2.16,2.16,0,1,0,3.74-2.18c-3.53-6.15-7.33-12.44-13.47-16.31a2.17,2.17,0,1,0-2.19,3.74Z" fill="#a46e4a"/><path d="M185.86,283.56a14.08,14.08,0,0,1,1.41-1.26l-.44.34a13.73,13.73,0,0,1,3-1.77l-.52.22.73-.28a2.36,2.36,0,0,0,1.29-1,2.22,2.22,0,0,0,.22-1.67,2.16,2.16,0,0,0-1-1.29,2.07,2.07,0,0,0-1.66-.22,15.86,15.86,0,0,0-6.12,3.86,2.25,2.25,0,0,0-.64,1.53,2.17,2.17,0,0,0,3.7,1.53Z" fill="#a46e4a"/><path d="M199.56,394.77a169.94,169.94,0,0,0,10.58,46.5c5.92,15.55,15.27,31.26,30.66,37.57,21,8.63,45.93-4.19,58.51-23.12s15.8-36.6,18.7-59.14c8.42,4.06,17.21,1.57,26.23,4C340,434,343.87,512,352.78,544.41c-65,8.6-121.31,27.28-186.1,17.31,7-27.71-.68-128.77-1.28-157.34a99.36,99.36,0,0,1,32.13-7.45Z" fill="#ef6a55"/><path d="M406.88,436.72c14.41,24.33,24.74,52.9,16.26,79.87a319.22,319.22,0,0,1-110.47.1c5-42.45,9.93-80.57,14.89-123C327.56,393.68,392.48,412.39,406.88,436.72Z" fill="#87c3a9"/><path d="M107.83,431.79c-16.78,23.4-29.46,51.29-21.94,78.74a365.21,365.21,0,0,0,118,6.87c-2.87-42.68-6-81-8.85-123.72C195,393.68,124.61,408.38,107.83,431.79Z" fill="#87c3a9"/><path d="M134.7,453l1,54.14c.05,2.79,4.38,2.79,4.33,0L139,453c-.05-2.79-4.37-2.79-4.33,0Z" fill="#498469"/><path d="M378.19,457.37A323.85,323.85,0,0,0,376,507.08c.09,2.78,4.42,2.79,4.33,0a323.85,323.85,0,0,1,2.23-49.71c.34-2.76-4-2.73-4.33,0Z" fill="#498469"/><path d="M341.64,404.62c3.85,7.43,7.86,15.21,7.91,23.78.05,7.56-2.82,14.73-6.82,21-4.13,6.53-9.47,11.93-14.94,17.32-2.84,2.81-4.54,6.06-4,10.14s2.66,7.45,4.39,11a99.45,99.45,0,0,1,8.71,27.49c.46,2.74,4.63,1.58,4.18-1.15a104.08,104.08,0,0,0-7.23-24.36c-1.7-3.91-4.2-7.65-5.39-11.75a7.53,7.53,0,0,1,.07-5.33c.85-1.84,2.59-3.2,4-4.57,10.72-10.29,21.16-23.68,21.34-39.24.11-9.57-4.21-18.24-8.5-26.54-1.28-2.47-5-.28-3.74,2.19Z" fill="#498469"/><path d="M182.84,398.8l-16.56,24.13c-2.67,3.88-5.37,7.76-8,11.66-2.26,3.34-4.19,7-3.52,11.16,1.17,7.34,8.87,11.57,13.83,16.24a72.59,72.59,0,0,1,8.87,10,28.83,28.83,0,0,1,3.09,4.67c1.07,2.33-.67,4.07-2,5.89l-19,26.71c-1.62,2.28,2.13,4.44,3.73,2.19l17-23.82c2.23-3.13,5.86-6.76,4.87-11a16.31,16.31,0,0,0-2.83-5.31q-2-2.82-4.16-5.48a75.59,75.59,0,0,0-8.84-9.05c-2.75-2.38-5.84-4.52-8.13-7.37-2.58-3.22-2.77-6.59-.74-10.16,2.22-3.91,5-7.53,7.58-11.23L186.57,401c1.58-2.3-2.17-4.47-3.73-2.18Z" fill="#498469"/><path d="M214.54,471.81a57.6,57.6,0,0,0,64.61,17.64,58.68,58.68,0,0,0,17.68-10.55c2.11-1.83-1-4.88-3.06-3.06a53.56,53.56,0,0,1-30.84,12.84A52.87,52.87,0,0,1,231.46,481a54,54,0,0,1-13.86-12.22c-1.74-2.17-4.79.9-3.06,3.06Z" fill="#a3362b"/></g></svg>