<svg id="Layer_1" data-name="Layer 1" xmlns="http://www.w3.org/2000/svg" xmlns:xlink="http://www.w3.org/1999/xlink" viewBox="0 0 512 512"><defs><clipPath id="clip-path"><circle cx="256" cy="256" r="256" fill="none"/></clipPath><clipPath id="clip-path-2"><path d="M385.24,393c-25.1-16.81-55.43-23.54-85.05-29.49a11.84,11.84,0,0,1-5.13-1.89c-2.49-1.94,3.15-23.4,0-52l-42.28,4-42.27-4c-3.16,28.6,2.48,50.06,0,52a11.93,11.93,0,0,1-5.14,1.89c-29.62,5.95-60,12.68-85.05,29.49S76.21,504.3,80.24,534.24c25.2-.13,95.55,3.36,166.82,4.29v.16l5.72-.08,5.72.08v-.16c71.27-.93,141.62-4.42,166.82-4.29C429.35,504.3,410.34,409.81,385.24,393Z" fill="#fbd1b9"/></clipPath></defs><g clip-path="url(#clip-path)"><path d="M251.63,76.32a7.35,7.35,0,0,1,14.6,1.39l-13.67.07Z" fill="#c17e2f"/><path d="M385.24,393c-25.1-16.81-55.43-23.54-85.05-29.49a11.84,11.84,0,0,1-5.13-1.89c-2.49-1.94,3.15-23.4,0-52l-42.28,4-42.27-4c-3.16,28.6,2.48,50.06,0,52a11.93,11.93,0,0,1-5.14,1.89c-29.62,5.95-60,12.68-85.05,29.49S76.21,504.3,80.24,534.24c25.2-.13,95.55,3.36,166.82,4.29v.16l5.72-.08,5.72.08v-.16c71.27-.93,141.62-4.42,166.82-4.29C429.35,504.3,410.34,409.81,385.24,393Z" fill="#fbd1b9"/><g clip-path="url(#clip-path-2)"><path d="M154.24,308.7C170.91,298,171.62,292.81,172.42,298c3.94,25.31,44,86.3,80.33,86.3,47.09,0,74.41-79.48,78.82-99.51-54.42,7.78-109.54,15.57-164.11,9Q169.7,295.9,172,298Z" fill="#dba78a"/></g><path d="M176.29,168.42c-11.45,32.83-8.62,90.34,0,123.78.05.18.1.36.14.54,4.68,17.95,12.16,35.87,26.24,49.84S238.43,366,259.9,363.52c20.77-2.39,38.19-15.48,48.32-31s14-33.45,16.86-51.06c4.93-30.67,3.64-112.14.16-112.39-44.72-3.21-105.43-11-149-1.67Z" fill="#fbd1b9"/><path d="M323.29,268.71c1.1-6.75,10.69-11,18.38-9A18,18,0,0,1,355,275.27c.58,6.8-2.68,13.5-7.27,19.09-7.67,9.33-21.17,16.57-34.13,13.68a335.68,335.68,0,0,1,8.85-41.59Z" fill="#fbd1b9"/><path d="M177.48,268.71c-1.1-6.75-10.69-11-18.38-9a18,18,0,0,0-13.34,15.55c-.57,6.8,2.68,13.5,7.28,19.09,7.67,9.33,21.16,16.57,34.13,13.68a337.51,337.51,0,0,0-8.85-41.59Z" fill="#fbd1b9"/><path d="M226.77,260.62c0,4.74-3.5,8.58-7.82,8.58s-7.82-3.84-7.82-8.58S214.63,252,219,252,226.77,255.88,226.77,260.62Z" fill="#1a1a1a"/><path d="M292,260.62c0,4.74-3.5,8.58-7.82,8.58s-7.82-3.84-7.82-8.58,3.5-8.58,7.82-8.58S292,255.88,292,260.62Z" fill="#1a1a1a"/><path d="M391.25,392.52c-15.33-10.26-32.57-16.82-50.43-21.74A68.47,68.47,0,0,1,325.2,390c-14.55,12.31-33.67,17.93-52.56,20.54-41.11,5.68-87.52-4-113.68-35.68-13.11,4.4-25.69,10-37.19,17.71C96.24,409.62,76.9,504.61,81,535.07c25.64-.14,97.2,3.36,169.69,4.31v.16l5.82-.08,5.82.08v-.16c72.5-1,144.61,6.7,170.24,6.83C436.67,515.76,416.78,409.62,391.25,392.52Z" fill="#ffb753"/><path d="M267.51,230.54a116,116,0,0,0,34.76,6.31c-7.48-16.28-26.47-20.68-37.72-8.73Z" fill="#262b44"/><path d="M204.94,244a115.69,115.69,0,0,0,33.57-11c-14.33-10.76-33.12-5.58-37.33,10.28Z" fill="#262b44"/><path d="M350.88,193.48c2.68-2.13,3.7-6.08,4.06-9.77,1.41-14.14-4.67-28.91-15.1-36.71,3.92.86-2.46.77-1.37-3.62s-2.42-9.78-4.55-13.64c-7.64-13.87-11.6-19.61-25.95-19.18a30.23,30.23,0,0,0-10.13,1.61,15.57,15.57,0,0,0-4-6.14,13.05,13.05,0,0,0-16.83-.66,16.7,16.7,0,0,0-15.94-12.5c-6.93,0-13.46,4-18.64,9.25-2.15-12.46-16.71-18.43-26.62-12.64-8,4.67-12.55,14.66-13.41,25-8.15.6-15.92,5.7-22.2,11.92-3.07,3-6.12,6.91-6.11,11.55a7.67,7.67,0,0,0,2,5,8.72,8.72,0,0,0-1.1.56c-11,6.69-18.7,19.86-19.93,34a4,4,0,0,0,.55.19c-3.55,6.43-6.62,13.61-6.44,21.2s4.68,15.73,11.36,16.85c-5.45,6.63-5.43,18.14,0,24.74-3.09,4.3-1.68,11.18,1.87,15l.1.11c5.15,5.43,14.32,3.14,16.72-3.94,5.74-16.94,16.74-51.75,17.93-73,2.73,7,9.85,11.37,16.47,10.14s12.15-7.95,12.81-15.57c1,7.94,10.34,9.8,17.3,8.7a79.24,79.24,0,0,0,25.15-8.56c-7.21,4.18-9,16.4-4.28,23.89a17.7,17.7,0,0,0,21.85,6.56A29.82,29.82,0,0,0,297.31,195a8.13,8.13,0,0,0,9.26.27,21.55,21.55,0,0,0-4.19,18.24c1.82,7.61,8.19,13.49,15.09,13.94-2.73,2.42-.61,12.71,4.15,22.21,3.67,7.31,14.72,4.43,14.32-3.74l-.16-3.43c-.12-2.42-.18-5.08,1.14-7,1.43-2.06,4-2.51,6.12-3.42,6.87-2.88,11-11.74,10.47-20.07a30.8,30.8,0,0,0-7.32-17.67A5.32,5.32,0,0,0,350.88,193.48Z" fill="#262b44"/><path d="M242.29,289.49a43.65,43.65,0,0,1,5.8-8.08c1.95-2.12,4.65-5.29,7.7-5.64,1.64-.19,3,.92,4.27,1.81,1.45,1,2.89,2.11,4.29,3.22q4.38,3.49,8.42,7.39c2,1.92,5.06-1.13,3.05-3.05a120.29,120.29,0,0,0-9.9-8.54c-3.06-2.37-6.47-5.59-10.65-5.08-3.82.47-6.89,3.36-9.45,6a47.93,47.93,0,0,0-7.26,9.78c-1.36,2.42,2.37,4.6,3.73,2.18Z" fill="#a46e4a"/><path d="M245.46,310.16A11,11,0,0,0,256,315.65a11.14,11.14,0,0,0,9.27-7.53,2.18,2.18,0,0,0-1.5-2.65,2.2,2.2,0,0,0-2.66,1.51,6.66,6.66,0,0,1-.9,1.72l-.08.1c-.12.15-.25.29-.38.43a7.76,7.76,0,0,1-.84.78c-.3.25.38-.23-.2.15l-.38.25a8.11,8.11,0,0,1-1,.53c.26-.11-.18.06-.23.08l-.54.17-.56.13c-.06,0-.53.07-.22,0a6.73,6.73,0,0,1-6.55-3.38,2.16,2.16,0,0,0-3.73,2.18Z" fill="#a46e4a"/><path d="M329,289.6a64.87,64.87,0,0,1,15.23-11.9A2.16,2.16,0,0,0,342,274a68.88,68.88,0,0,0-16.1,12.57A2.16,2.16,0,1,0,329,289.6Z" fill="#a46e4a"/><path d="M333.94,282.69c.55,2.31,1.09,4.63,1.64,6.94a2.17,2.17,0,0,0,2.65,1.51,2.21,2.21,0,0,0,1.51-2.66c-.55-2.31-1.09-4.62-1.64-6.94a2.17,2.17,0,0,0-2.65-1.51,2.21,2.21,0,0,0-1.51,2.66Z" fill="#a46e4a"/><path d="M159.13,271.83l12.36,13.95a2.17,2.17,0,0,0,3,0,2.21,2.21,0,0,0,0-3l-12.36-14a2.16,2.16,0,1,0-3.05,3.05Z" fill="#a46e4a"/><path d="M164.74,284.12l6-3.44a2.16,2.16,0,0,0-2.18-3.73l-6,3.44a2.16,2.16,0,0,0,2.17,3.73Z" fill="#a46e4a"/><path d="M222.38,288.11h.77a1.66,1.66,0,0,0,.83-.18,1.69,1.69,0,0,0,.7-.45,2.51,2.51,0,0,0,.63-1.53l-.08-.57a2.17,2.17,0,0,0-.55-.95l-.44-.34a2.2,2.2,0,0,0-1.09-.29h-.77a1.66,1.66,0,0,0-.83.18,1.69,1.69,0,0,0-.7.45,1.54,1.54,0,0,0-.44.69,1.61,1.61,0,0,0-.19.83l.08.58a2.13,2.13,0,0,0,.55,1l.44.34a2.17,2.17,0,0,0,1.09.29Z" fill="#a46e4a"/><path d="M209.38,299.89v.77a1.69,1.69,0,0,0,.19.83,2.24,2.24,0,0,0,2,1.33l.58-.08a2.15,2.15,0,0,0,.95-.56l.33-.43a2.11,2.11,0,0,0,.3-1.09v-.77a1.62,1.62,0,0,0-.19-.84,1.54,1.54,0,0,0-.44-.69,1.69,1.69,0,0,0-.7-.45,1.66,1.66,0,0,0-.83-.18l-.57.07a2.18,2.18,0,0,0-.95.56l-.34.44a2.18,2.18,0,0,0-.3,1.09Z" fill="#a46e4a"/><path d="M302.16,460.69c-9.51-10.18-23.38-15.21-37.13-17.45a118.32,118.32,0,0,0-39,.19c-3.46.59-7.25,1.58-9.17,4.53a13.44,13.44,0,0,0-1.63,5.57,1072.63,1072.63,0,0,0-9.71,108.73l.59,4.61a84.82,84.82,0,0,0,23.76,2.26A168.78,168.78,0,0,1,233.2,533l13.14.87a183.11,183.11,0,0,1,3.4,37.95L296.57,569a157,157,0,0,0-25.67-49.42c14.43-3.2,30.51-7.57,37.82-20.42C315.61,487.06,311.66,470.88,302.16,460.69ZM287,492.31c-1.89,3.7-5.69,6.07-9.61,7.45-10.53,3.72-22.13,1.48-33.07-.8a5.88,5.88,0,0,1-3.22-1.39c-1-1.08-1.06-2.72-1.07-4.2a250.14,250.14,0,0,0-1.65-27.9l2.6-.07a54.33,54.33,0,0,1,32.67,3.76c4.55,2,8.93,4.86,11.77,9S289.23,487.86,287,492.31Z" fill="#fff"/><path d="M353.91,448.43Q358.8,498,368.18,547q2.64,13.8,5.64,27.53c.6,2.71,4.76,1.56,4.17-1.15q-10.51-48.1-16.65-97-1.74-14-3.12-27.93c-.27-2.74-4.59-2.77-4.31,0Z" fill="#c17e2f"/><path d="M365,458.75c-1.76,9.72-4.91,19.15-6.67,28.88-.49,2.71,3.67,3.88,4.16,1.14,1.76-9.72,4.91-19.15,6.67-28.87.49-2.72-3.67-3.88-4.16-1.15Z" fill="#c17e2f"/><path d="M140.93,419a1075.45,1075.45,0,0,1,4.79,114.36q-.18,16-.84,32c-.11,2.78,4.2,2.77,4.31,0a1078.92,1078.92,0,0,0-1.38-114.45q-1-16-2.57-31.9c-.26-2.74-4.57-2.77-4.31,0Z" fill="#c17e2f"/><path d="M135.86,436l9.93,11.72a2.16,2.16,0,0,0,3.05,0,2.22,2.22,0,0,0,0-3.05l-9.93-11.72a2.16,2.16,0,0,0-3,0,2.21,2.21,0,0,0,0,3Z" fill="#c17e2f"/><path d="M150.39,383.49A159.45,159.45,0,0,0,231,425.29a158.46,158.46,0,0,0,134.64-37.85c2.07-1.86-1-4.9-3-3.05a155.45,155.45,0,0,1-81,37.81,152.44,152.44,0,0,1-87.05-13.33,154,154,0,0,1-41.12-28.43c-2-1.94-5.05,1.11-3.05,3.05Z" fill="#fff"/><path d="M154.32,167.87C215.7,181.28,267.68,195.14,356.66,157c3.11,17.69,1.18-85.63-111.9-80.05C169.47,80.69,154.32,167.87,154.32,167.87Z" fill="#ffb753"/><path d="M276.28,198.53c24.05,3.77,48.84,7.56,73,4.15a114.81,114.81,0,0,0,33.46-10c2.29-1.1,4.59-2.32,6-4.07a8.88,8.88,0,0,0,1.83-6.17c-.39-9.8-10.74-20.66-33.93-30-61.69,29-204.44,15.46-202.34,15.59C154.32,168.07,237.36,192.42,276.28,198.53Z" fill="#c17e2f"/><path d="M258.42,75.34c31.49,12.07,56.46,39.23,67.18,71a109.59,109.59,0,0,1,5.56,28.1c.17,2.76,4.48,2.78,4.31,0a117.14,117.14,0,0,0-15-50.05,123,123,0,0,0-34.75-39.08,112.93,112.93,0,0,0-26.17-14.18c-2.6-1-3.72,3.17-1.15,4.16Z" fill="#c17e2f"/><path d="M256.49,75.88c12.55,25.29,15.65,53.84,16.2,81.71.16,8,.11,15.95,0,23.92,0,2.78,4.28,2.78,4.31,0,.39-28.53.12-57.73-8-85.33a139.18,139.18,0,0,0-8.78-22.47c-1.23-2.49-5-.31-3.73,2.17Z" fill="#c17e2f"/><path d="M257.45,72.63a147.43,147.43,0,0,0-29.79,76.91,142.33,142.33,0,0,0-.1,23.45c.21,2.75,4.53,2.77,4.31,0a142.65,142.65,0,0,1,29.3-98.18,2.16,2.16,0,0,0-.77-3,2.2,2.2,0,0,0-2.95.77Z" fill="#c17e2f"/><path d="M258.38,73.67c-33.08,12.44-62.3,36.06-76.32,69.11a104.78,104.78,0,0,0-7.64,28.73c-.33,2.75,4,2.73,4.31,0,4-34.12,26.26-63.29,55-81a149,149,0,0,1,25.84-12.64c2.57-1,1.46-5.14-1.15-4.16Z" fill="#c17e2f"/></g></svg>