<svg id="Layer_1" data-name="Layer 1" xmlns="http://www.w3.org/2000/svg" xmlns:xlink="http://www.w3.org/1999/xlink" viewBox="0 0 512 512"><defs><clipPath id="clip-path"><circle cx="256" cy="256" r="256" transform="translate(-106.04 256) rotate(-45)" fill="none"/></clipPath><clipPath id="clip-path-2"><path d="M393.94,443.11c-23.52-15.75-51.94-22.06-79.69-27.63a11.12,11.12,0,0,1-4.81-1.78c-2.33-1.81,3-63.11,0-89.91l-39.61,3.71-39.61-3.71c-3,26.8,2.33,88.1,0,89.91a11.11,11.11,0,0,1-4.82,1.78c-27.75,5.57-56.17,11.88-79.68,27.63s-41.34,43.22-37.56,71.27c23.61-.12,89.53.3,156.31,1.18v.15l5.36-.08,5.36.08v-.15c66.77-.88,132.69-1.3,156.31-1.18C435.27,486.33,417.46,458.86,393.94,443.11Z" fill="#fbd1b9"/></clipPath></defs><g clip-path="url(#clip-path)"><path d="M184.66,275.42a115.77,115.77,0,0,1-19.41-39.18,134.2,134.2,0,0,1-4.4-41,86.87,86.87,0,0,1,3.66-23.34c8-24.55,31.58-41.62,56.6-48s51.43-3.5,76.85,1c7.8,1.39,15.77,3,22.47,7.25s11.52,10.64,16.23,16.94l13.49,18c3.35,4.47,6.73,9,8.93,14.13,2.68,6.24,3.49,13.09,4.23,19.83,2.27,20.48,3.86,42.55-6.46,60.39-3.3,5.69-7.68,10.67-12,15.61-1.25,1.43-2.6,2.92-4.42,3.46a11.71,11.71,0,0,1-5-.09c-7.95-1.1-16,.38-23.88,1.9-35.78,6.94-71.7,15.17-108.14,14.51-4.19-.08-9.14-.73-11.08-4.45Z" fill="#7c7a79"/><path d="M214,127.77c-5.75-8.35-11.78-18.47-8.32-28a23.3,23.3,0,0,1,7.19-9.51c14.91-12.62,36.52-13.33,55.85-10.5,7,1,14.64,2.87,18.66,8.68,1.91,2.76,2.74,6.11,3.44,9.39q1.48,6.93,2.38,14c.59,4.67.95,9.6-1,13.9S285.5,133.37,281,132Z" fill="#7c7a79"/><path d="M393.94,443.11c-23.52-15.75-51.94-22.06-79.69-27.63a11.12,11.12,0,0,1-4.81-1.78c-2.33-1.81,3-63.11,0-89.91l-39.61,3.71-39.61-3.71c-3,26.8,2.33,88.1,0,89.91a11.11,11.11,0,0,1-4.82,1.78c-27.75,5.57-56.17,11.88-79.68,27.63s-41.34,43.22-37.56,71.27c23.61-.12,89.53.3,156.31,1.18v.15l5.36-.08,5.36.08v-.15c66.77-.88,132.69-1.3,156.31-1.18C435.27,486.33,417.46,458.86,393.94,443.11Z" fill="#fbd1b9"/><g clip-path="url(#clip-path-2)"><path d="M177.49,322.93c15.63-10.06,16.29-14.89,17-10.06,3.69,23.72,41.18,80.86,75.26,80.86,44.12,0,69.72-74.47,73.85-93.24-51,7.29-102.64,14.59-153.77,8.46l4.21,4Z" fill="#dba78a"/></g><path d="M196.47,308.9c.05.16.09.33.14.5,4.43,16.82,11.52,33.61,24.87,46.7s33.9,21.94,54.26,19.62c19.68-2.24,36.2-14.5,45.81-29.09s13.3-31.33,16-47.84c2.26-13.92,2-45.74,1.07-74.84-1-32.88-32.83-59.2-72.05-59.63h0c-40.32-.45-73.38,26.58-74,60.39C192,257.07,192.4,293.27,196.47,308.9Z" fill="#fbd1b9"/><path d="M335.83,286.89c1-6.33,10.13-10.29,17.43-8.43A16.88,16.88,0,0,1,365.9,293c.55,6.38-2.54,12.65-6.9,17.89-7.27,8.74-20.06,15.52-32.35,12.82a310.64,310.64,0,0,1,8.39-39Z" fill="#fbd1b9"/><path d="M197.6,286.89c-1-6.33-10.13-10.29-17.42-8.43A16.88,16.88,0,0,0,167.53,293c-.55,6.38,2.54,12.65,6.9,17.89,7.27,8.74,20.06,15.52,32.35,12.82a310.64,310.64,0,0,0-8.39-39Z" fill="#fbd1b9"/><path d="M296.39,277.73c0,2.86,2.64,5.17,5.89,5.17s5.89-2.31,5.89-5.17-2.64-5.17-5.89-5.17S296.39,274.87,296.39,277.73Z" fill="#1a1a1a"/><path d="M234.89,278.25c0,2.85,2.64,5.17,5.89,5.17s5.89-2.32,5.89-5.17-2.64-5.18-5.89-5.18S234.89,275.39,234.89,278.25Z" fill="#1a1a1a"/><path d="M338.5,304.49a88.15,88.15,0,0,1,18.76-14,2,2,0,0,0,.91-2.92,2.85,2.85,0,0,0-3.47-.76,92.66,92.66,0,0,0-19.79,14.62,2,2,0,0,0,0,3,2.94,2.94,0,0,0,3.59,0Z" fill="#a46e4a"/><path d="M180.56,291.08s.73.25.36.11l.71.28c.4.16.78.32,1.17.5a25.39,25.39,0,0,1,2.42,1.29,18.44,18.44,0,0,1,1.91,1.33,24.5,24.5,0,0,1,2.08,1.83,19.88,19.88,0,0,1,2.89,3.78,11,11,0,0,1,.94,1.92,16.48,16.48,0,0,1,.78,2.44c.28,1.12,1.87,1.77,3.13,1.48a2.14,2.14,0,0,0,1.77-2.62c-1.82-7.48-8.39-13.7-16.81-16.45a2.66,2.66,0,0,0-3.13,1.49c-.39,1.2.49,2.2,1.78,2.62Z" fill="#a46e4a"/><path d="M185.33,294.69a11.18,11.18,0,0,0-3.26,8.89,11.88,11.88,0,0,0,4.8,8.4,3,3,0,0,0,3.6,0,1.91,1.91,0,0,0,0-3c-.29-.21-.57-.43-.83-.66l-.3-.28s-.41-.43-.23-.23-.16-.2-.2-.24l-.3-.4a8.6,8.6,0,0,1-.49-.74,3.62,3.62,0,0,1-.24-.43c-.12-.22.1.27,0-.1s-.24-.6-.35-.91-.16-.55-.23-.83-.07-.31-.09-.47c.05.31,0,.09,0-.1a9.84,9.84,0,0,1,0-1.8c0-.13,0-.26,0-.38.07-.58-.09.22,0-.1s.14-.62.23-.92.19-.55.3-.82c0,0,.24-.51.12-.27s.12-.22.15-.26a9.07,9.07,0,0,1,.54-.83l.25-.32s.47-.52.15-.18a2,2,0,0,0,0-3,2.93,2.93,0,0,0-3.6,0Z" fill="#a46e4a"/><path d="M393.94,443.11c-23.52-15.75-51.94-22.06-79.69-27.63-.79-.16-47.22,29.31-47.22,29.31S226.3,415.3,225.4,415.48c-27.75,5.57-56.17,11.88-79.68,27.63s-41.34,43.22-37.56,71.27c23.61-.12,89.53.3,156.31,1.18v.15l5.36-.08,5.36.08v-.15c66.77-.88,132.69-1.3,156.31-1.18C435.27,486.33,417.46,458.86,393.94,443.11Z" fill="#ef6a55"/><path d="M267.53,245.39c-2.67.76-1.16,4.59-.76,6.4q1.35,6.08,2.72,12.14c2.68,12,5.3,24,7.62,36.1,1.19,6.2,2.34,12.43,3.18,18.69l2.73-2.08a24.1,24.1,0,0,1-11.41-7.7c-1.75-2.15-4.79.91-3.05,3.05a28.11,28.11,0,0,0,13.31,8.81c1.2.39,2.92-.71,2.73-2.08-2.94-21.88-8.16-43.46-13-65-.35-1.57-.71-3.15-1-4.73-.11-.47-.2-1-.3-1.44-.18-.85,0,.12-.1.49l-1.5,1.51h0c2.67-.75,1.53-4.92-1.15-4.16Z" fill="#a46e4a"/><path d="M271.61,338.87a13.48,13.48,0,0,1,2.15-.45l-.57.07a15,15,0,0,1,3.84,0l-.57-.08.34.05a2.36,2.36,0,0,0,1.67-.22,2.22,2.22,0,0,0,1-1.29,2.19,2.19,0,0,0-.22-1.66,2.07,2.07,0,0,0-1.29-1,17.23,17.23,0,0,0-7.49.4,2.16,2.16,0,0,0,1.15,4.16Z" fill="#a46e4a"/><path d="M343.25,298.91a8.53,8.53,0,0,1,.61.95c.09.16.17.33.25.49.19.37-.07-.27.09.24.11.35.22.68.3,1,0,.06.12.63.07.33s0,.26,0,.33a9,9,0,0,1,0,1.16c0,.18,0,.36-.05.54,0-.39,0-.06,0,.13a9.6,9.6,0,0,1-.25,1.06c-.06.18-.11.35-.18.52s-.24.61-.05.17a11,11,0,0,1-1.1,1.95s-.4.52-.12.17c-.12.15-.24.3-.37.44-.26.29-.53.57-.81.83l-.45.38c-.36.32.19-.11-.18.15s-.66.45-1,.65c-.2.12-.41.23-.62.33s-.57.27-.4.2-.34.13-.42.15c-.23.09-.46.16-.7.23a2.16,2.16,0,1,0,1.15,4.16,13.9,13.9,0,0,0,8.83-7.63,11.36,11.36,0,0,0-.87-11.15,2.22,2.22,0,0,0-3-.78,2.18,2.18,0,0,0-.78,3Z" fill="#a46e4a"/><path d="M240.93,239.26c9.93,2.15,19.83,0,29.76-.91,10.4-.95,20.81.16,31.15,1.31,2.76.3,2.74-4,0-4.32-10.11-1.12-20.29-2.22-30.47-1.37-9.7.82-19.6,3.23-29.29,1.13-2.71-.58-3.87,3.58-1.15,4.16Z" fill="#dba78a"/><path d="M233.51,227l65.73,0c2.78,0,2.78-4.32,0-4.31l-65.73,0c-2.78,0-2.78,4.31,0,4.31Z" fill="#dba78a"/><path d="M258.55,309.76a113.38,113.38,0,0,0-12.84,43c-.24,2.76,4.07,2.75,4.32,0a107.68,107.68,0,0,1,12.25-40.82c1.29-2.46-2.43-4.64-3.73-2.18Z" fill="#dba78a"/><path d="M288.62,315.92a235.12,235.12,0,0,1,8.8,26.21c.73,2.67,4.89,1.54,4.17-1.15a237.24,237.24,0,0,0-8.81-26.21,2.22,2.22,0,0,0-2.66-1.5,2.16,2.16,0,0,0-1.5,2.65Z" fill="#dba78a"/><path d="M193.27,279.14q15.87-42.52,28.22-86.26c2.25,4.21,5.34,8.18,9.64,10.26s10,1.79,13.31-1.61,3-10-1.22-12.28a29.36,29.36,0,0,0,28.3,11.88,27.12,27.12,0,0,0-4.14-13,28.17,28.17,0,0,0,21.05,12.6,7.46,7.46,0,0,0,3.76-.44c2.27-1.08,3.13-4,2.62-6.47s-2.09-4.54-3.62-6.53A20.74,20.74,0,0,0,311,204.2c2.8,0,6.4-1.72,5.75-4.44a15.94,15.94,0,0,0,7,8.79c1.31.78,2.82,1.45,3.53,2.8s6.2,62.67,9.79,72.92c5.46-1.72,6.29-9,6.1-14.69q-.48-14.5-1-29c-.4-11.92-.81-23.95-3.76-35.5s-8.68-22.76-18-30.18-21.35-10.43-33-12.75c-22.29-4.44-46.63-6.82-66.67,3.88-18.36,9.8-30,29.36-34.53,49.67s-2.76,41.47.14,62.07l6.1,1.84Z" fill="#7c7a79"/><path d="M189.53,278.24a89.79,89.79,0,0,1,18.28-4.5,4.31,4.31,0,0,0,2.58-2,4.4,4.4,0,0,0,.43-3.33,4.33,4.33,0,0,0-2-2.57,5,5,0,0,0-3.33-.44,90.11,90.11,0,0,0-18.28,4.5c-2.11.76-3.77,3-3,5.31.68,2.08,3,3.83,5.31,3Z" fill="#4f657f"/><path d="M226.29,536.37a305.17,305.17,0,0,1-80.63,8.17c-12.71-.41-25.68-1.59-38,1.72-4.58-25-8.92-52,2-75,7.58-15.86,21.78-27.79,37.41-35.84s32.78-12.61,49.78-17.12c4.92-1.3,15.07-1.79,20-3.09C216.93,415.24,221.58,496.53,226.29,536.37Z" fill="#4f657f"/><path d="M312.29,536.37a305.12,305.12,0,0,0,80.63,8.17c12.71-.41,25.67-1.59,37.95,1.72,4.58-25,8.93-52-2-75-7.57-15.86-21.78-27.79-37.41-35.84s-32.78-12.61-49.77-17.12c-4.93-1.3-15.07-1.79-20-3.09C321.65,415.24,317,496.53,312.29,536.37Z" fill="#4f657f"/><path d="M225.92,415.48c-1.9,8.24-2.3,19.29,1.37,26.92s11,13.68,19.41,14.67,20.06-3.8,23-11.74c4.33,5.54,7.79,9.85,14.62,11.53a24.69,24.69,0,0,0,20.11-3.57c5.54-4,8.94-10.46,10.25-17.16s.67-13.64-.65-20.33l-45,24.86Z" fill="#fff"/><path d="M269.16,443.57c-1.88.85-3.44,2.62-4.84,4.09-2,2.11-3.92,4.34-5.85,6.54a48.42,48.42,0,0,1-4.76,5.05c-2.09,1.79-5.21,3.86-6.31,7.1a8.21,8.21,0,0,0,2.53,8.74c2.29,2.1,5.34,3.27,7.5,5.5.55.58.71.58,0,1.07s-1.8,1.06-2.71,1.58l-6.21,3.53c-3,1.7-6.29,3.51-8,6.61a8.64,8.64,0,0,0,2.17,10.68c3.5,3.09,8.21,3.42,12.66,3.55l-1.08-4c-3.46,1.66-6.24,5.65-4.77,9.55,1.27,3.34,5.35,5.16,8.53,3.32,2.4-1.4.23-5.13-2.18-3.73-1.06.62-2.3-.53-2.43-1.59-.22-1.8,1.62-3.15,3-3.82,2-1,.91-4-1.09-4-3.46-.11-7.6-.12-10.17-2.83s-1.19-5.43,1.33-7.37c2.88-2.23,6.37-3.83,9.53-5.63,2.61-1.49,7.2-3.38,6.21-7.23-.72-2.79-3.94-4.58-6.19-6-1.85-1.2-4.65-2.7-4.72-5.23-.07-3.06,3.28-4.83,5.31-6.52a41.11,41.11,0,0,0,4.24-4.41c1.94-2.2,3.85-4.44,5.85-6.6,1.36-1.46,2.82-3.31,4.66-4.14,2.52-1.15.33-4.87-2.18-3.73Z" fill="#fff"/><path d="M271,444.64c-2,.58-2.95,2.75-3.58,4.58a47,47,0,0,0-1.72,7.78c-.89,5.57-2.57,11.68.66,16.8,1.88,3,5.41,4.92,6.87,8.12,1.67,3.68-2.44,6.33-5.36,7.45-3.81,1.47-8.42,2.35-11,5.84s-.76,7.23,2.36,9.4c2.75,1.92,7.06,2.11,9.29,4.7,3.5,4.07-2.53,8.88-5.35,11.09-2.18,1.71.89,4.74,3.05,3.05,3.25-2.55,6.55-5.44,7.35-9.7a8.56,8.56,0,0,0-3.93-9c-2.58-1.65-5.89-2-8.33-3.89-4.36-3.36,3.6-5.87,6-6.68,3.56-1.22,7.05-2.75,9.23-6a8.4,8.4,0,0,0-.32-9.62c-2.08-3-5.53-5-6.93-8.44-1-2.45-.45-4.77-.1-7.26.4-2.88.8-5.77,1.4-8.62a28.05,28.05,0,0,1,1.1-4.14c.17-.44.38-.78.57-1.21s.2-.15-.11-.06c2.67-.76,1.54-4.92-1.14-4.16Z" fill="#fff"/><path d="M269.67,445.63c-.81,1.11,0,2.69.49,3.75.72,1.66,1.5,3.29,2.28,4.93.86,1.8,1.73,3.6,2.58,5.42.27.58.69,1.51.85,1.9,0,0,.15.45.23.59.46.85-.79.52.34-1a2.11,2.11,0,0,0,0,2.18c1.44,2.41,3.67,3.85,5.86,5.5,2,1.54,4,3.63,2.4,6.15-1.17,1.87-2.92,3.29-3.85,5.32a6.94,6.94,0,0,0,.88,7.25c1.64,2.2,4.23,3.4,5.88,5.56,2,2.61-.53,4.06-2.61,5.37-2.28,1.44-4.73,3.62-4.78,6.55a5.7,5.7,0,0,0,3.55,5.18c1,.49,2.11.8,3.11,1.32,1.17.6,1.38,1.18.71,2.4-1.61,2.93-4.86,5.5-7.5,7.48-2.19,1.65,0,5.39,2.18,3.73a45.83,45.83,0,0,0,7.36-6.76c1.88-2.21,3.71-5.24,2.09-8.13-1.16-2.07-3.35-2.71-5.38-3.59-.6-.26-1.68-.63-1.82-1.38-.25-1.36,2-2.65,2.88-3.21,2.38-1.48,4.85-3.21,5.27-6.2s-1.41-5.51-3.55-7.36c-1.63-1.41-5.39-3.43-4.5-6.1.74-2.22,3-3.75,4.13-5.81a7.58,7.58,0,0,0-1-8.53c-2.15-2.69-5.79-3.94-7.56-6.92v2.18c.81-1.11,0-2.69-.49-3.75-.72-1.67-1.5-3.3-2.28-4.93-.86-1.81-1.73-3.61-2.57-5.42-.28-.59-.7-1.51-.86-1.91a5.18,5.18,0,0,0-.23-.59c-.46-.84.79-.52-.34,1,1.63-2.26-2.11-4.41-3.72-2.18Z" fill="#fff"/><path d="M203.61,420.34c2,18.32,3.9,36.64,5,55.05,1.07,18.24,1.59,36.52,3.12,54.74.88,10.41,2.1,20.79,3.86,31.09.39,2.3,3.22,3.58,5.31,3,2.43-.67,3.4-3,3-5.31-6.07-35.48-5.21-71.74-8.46-107.51-.94-10.37-2.06-20.72-3.18-31.07-.25-2.32-1.8-4.32-4.32-4.32-2.13,0-4.56,2-4.31,4.32Z" fill="#2e3d4c"/><path d="M326.68,422.65q-5.56,52.28-8.68,104.77-.88,15-1.56,30a4.32,4.32,0,1,0,8.63,0q2.39-52.51,7.26-104.88,1.38-15,3-29.89c.25-2.32-2.16-4.32-4.31-4.32-2.54,0-4.07,2-4.32,4.32Z" fill="#2e3d4c"/><path d="M372.35,437,385,422.11a2.22,2.22,0,0,0,0-3.05,2.18,2.18,0,0,0-3.05,0L369.3,434a2.22,2.22,0,0,0,0,3.05,2.16,2.16,0,0,0,3.05,0Z" fill="#4f657f"/><path d="M379.84,439.92l14.37-11.56a2.16,2.16,0,0,0,0-3.05,2.21,2.21,0,0,0-3,0l-14.37,11.56a2.17,2.17,0,0,0,0,3.05,2.21,2.21,0,0,0,3,0Z" fill="#4f657f"/><path d="M168.62,415.38a56.11,56.11,0,0,1,9.89,21.24c.62,2.71,4.78,1.56,4.16-1.15a59.17,59.17,0,0,0-10.32-22.27,2.23,2.23,0,0,0-3-.77,2.18,2.18,0,0,0-.77,2.95Z" fill="#4f657f"/><path d="M158,424.77a152.09,152.09,0,0,0,12.4,12.86,2.16,2.16,0,1,0,3-3.05,152.09,152.09,0,0,1-12.4-12.86,2.17,2.17,0,0,0-3.05,0,2.21,2.21,0,0,0,0,3Z" fill="#4f657f"/><path d="M261.38,454.73a10.32,10.32,0,0,1-5.48-1.93,2.42,2.42,0,0,1-1-1.11,1.23,1.23,0,0,1,.16-1c1.47-2.56,4.6.23,6.62-1.1a28.09,28.09,0,0,1-3.46-4.3c-.51-.78-.83-2.11.05-2.42a1.61,1.61,0,0,1,1.3.33l4.49,2.69c-1.28-1.27-2.64-2.69-2.56-4.61a2.36,2.36,0,0,1,2.4-2.38c2,.18,2.42,3.13,4.09,4.3a11.9,11.9,0,0,1,1.42-6.56,1.58,1.58,0,0,1,1-.92c.62-.11,1.14.47,1.44,1a7.7,7.7,0,0,1,.4,6.28,13.47,13.47,0,0,1,3.07-5.07,2.58,2.58,0,0,1,1.82-1c1.58.08,1.79,2.46,1,3.8s-2.22,2.5-2.24,4.08a8.66,8.66,0,0,1,2.47-2.5,2.89,2.89,0,0,1,3.29.14c1.1,1,.83,2.9-.16,4a8.64,8.64,0,0,1-3.86,2.05,8.17,8.17,0,0,1,6.87,2.94,6.12,6.12,0,0,1-5.56,1.26,6.92,6.92,0,0,1,6.1,4.17,7.78,7.78,0,0,1-6.76.1,8.48,8.48,0,0,1,4.75,7.59,5.5,5.5,0,0,1-4.94-3.15,12,12,0,0,1,2.42,6.57c.05.81-.19,1.86-1,2a1.6,1.6,0,0,1-1-.37,9.12,9.12,0,0,1-3.16-3.9,17.6,17.6,0,0,1,1.23,5c.09,1-.27,2.42-1.28,2.35a1.7,1.7,0,0,1-1-.55,7.84,7.84,0,0,1-2.26-4.31c-.31,1.22.15,2.5.23,3.77s-.49,2.81-1.75,3-2.07-1-2.32-2.16-.09-2.34-.39-3.46a7.17,7.17,0,0,1-2,6.06.84.84,0,0,1-1.37-.31,8.43,8.43,0,0,1,.51-7.09,6.87,6.87,0,0,1-3.5,2.2,2.06,2.06,0,0,1-1.43,0c-1.15-.57-.71-2.34,0-3.38a13.08,13.08,0,0,1,3.68-3.43c-2-.06-4.49,1-5.62-.42a2.25,2.25,0,0,1,.53-3.07,6.18,6.18,0,0,1,4.08-1,19.71,19.71,0,0,1-4.65.55c-.87,0-1.92-.17-2.27-1a2,2,0,0,1,.58-2,5.4,5.4,0,0,1,5.69-1.49Z" fill="#2e3d4c"/><path d="M269.89,439.93a6.24,6.24,0,0,1,5.36,1.77,13.05,13.05,0,0,1,2.55,3.92,21.22,21.22,0,0,1,1.47,8.09c0,4.83-1,9.79-4.52,13.51a10.91,10.91,0,0,1-3.9,2.62,4.12,4.12,0,0,1-1.92.37,4.58,4.58,0,0,1-2.78-1.79A20.12,20.12,0,0,1,266,442a6.26,6.26,0,0,1,3.92-2.08Z" fill="#ffb753"/><path d="M292.54,452.47v-.33a1.61,1.61,0,0,0-.19-.83,1.58,1.58,0,0,0-.44-.69,1.69,1.69,0,0,0-.7-.45,1.58,1.58,0,0,0-.83-.18l-.57.07a2.22,2.22,0,0,0-1,.56l-.33.43a2.11,2.11,0,0,0-.3,1.09v.33a1.56,1.56,0,0,0,.19.83,1.67,1.67,0,0,0,.44.7,2.51,2.51,0,0,0,1.53.63l.57-.08a2.2,2.2,0,0,0,1-.55l.33-.44a2.11,2.11,0,0,0,.3-1.09Z" fill="#4f657f"/><path d="M303.83,447.41h.33a1.71,1.71,0,0,0,.83-.18,1.6,1.6,0,0,0,.69-.45,1.72,1.72,0,0,0,.45-.69,1.62,1.62,0,0,0,.18-.84l-.07-.57a2.15,2.15,0,0,0-.56-.95l-.43-.34a2.2,2.2,0,0,0-1.09-.29h-.33a2.36,2.36,0,0,0-1.53.63,1.63,1.63,0,0,0-.44.69,1.61,1.61,0,0,0-.19.83l.08.58a2.22,2.22,0,0,0,.55.95l.44.34a2.2,2.2,0,0,0,1.09.29Z" fill="#4f657f"/><path d="M227.07,423.14h.33a1.61,1.61,0,0,0,.83-.19,1.66,1.66,0,0,0,.69-.45,1.6,1.6,0,0,0,.45-.69,1.68,1.68,0,0,0,.18-.83l-.07-.57a2.22,2.22,0,0,0-.56-1l-.44-.33a2,2,0,0,0-1.08-.3h-.33a2,2,0,0,0-2,1.33,1.59,1.59,0,0,0-.19.83l.08.57a2,2,0,0,0,.55.95l.44.34a2.11,2.11,0,0,0,1.09.3Z" fill="#4f657f"/><path d="M213,130.22a163.87,163.87,0,0,1,70.08-1.59,4.43,4.43,0,0,0,5.31-3c.58-2.12-.72-4.85-3-5.3a174.15,174.15,0,0,0-74.67,1.59c-5.4,1.3-3.11,9.63,2.29,8.32Z" fill="#4f657f"/><path d="M214.22,119a178.75,178.75,0,0,1,71.57.27,4.43,4.43,0,0,0,5.31-3,4.34,4.34,0,0,0-3-5.3,189.65,189.65,0,0,0-76.16-.27,4.31,4.31,0,1,0,2.29,8.32Z" fill="#4f657f"/><path d="M189,261.78c8.82,1.78,14.09,10.27,15.39,18.69,1.69,11-3.53,22.08-8.12,31.79-2.39,5.05-5.29,10.39-4.41,16.17.57,3.78,2.76,7,5.43,9.6,5,4.93,13.72,9.15,14.16,17,.34,6.31-3.56,11.94-5.16,17.84-1.43,5.31-1.43,10.93,2.15,15.38,1.74,2.17,4.77-.9,3.05-3-3.05-3.79-1.76-9.37-.3-13.54,1.86-5.33,4.76-10.5,4.59-16.32-.27-8.93-7.91-13.63-13.91-18.95-2.62-2.34-5.23-5.07-5.78-8.68-.87-5.69,3.14-11.6,5.42-16.54,4.6-10,8.87-20.95,7-32.13-1.63-9.72-8.24-19.4-18.36-21.45-2.71-.55-3.87,3.61-1.15,4.16Z" fill="#7c7a79"/><path d="M220.7,298.81c2.07.5,4.45-.12,6.48-.42,3.33-.5,6.65-1.08,10-1.68,8.72-1.57,17.44-3.24,26.07-5.27,5.3-1.25,8.68-6.6,6.45-11.85a31.5,31.5,0,0,0-3.32-5.14c-1.26-1.84-2.51-3.69-3.75-5.53-4.22-6.23-8.17-13-13.15-18.64a16.06,16.06,0,0,0-5.58-3.75,95.43,95.43,0,0,0-10.24-3.83c-8.39-2.69-17-4.86-25.52-6.92-2-.48-4-.94-5.95-1.4s-4.34-1.27-6.47-1.16A8.67,8.67,0,0,0,188,244.63c1.2,3.32,3.46,6.49,5.19,9.56l5.67,10.05c3.84,6.79,7.69,13.57,11.62,20.3a130.62,130.62,0,0,0,7.18,11.77,6.15,6.15,0,0,0,2,2.07c2.12,1,4.64.61,5.9-1.55,1.08-1.85.59-4.94-1.54-5.9,0,0,1.15,1,.62.44s.8,1.16.24.3c-.37-.57-.76-1.14-1.13-1.72-1.2-1.9-2.36-3.84-3.5-5.77-3.36-5.68-6.63-11.4-9.89-17.13q-5.31-9.32-10.56-18.68l-2.14-3.82-1.08-1.91-.5-.91c.11.31.09.23-.05-.26a.7.7,0,0,1,0,.6c.13-.38.28-.37,0-.13.73-.64-.05-.05-.18,0,.7-.46-.35-.15.52-.21-.44,0-.69-.11-.07.12a42,42,0,0,0,5.38,1.25c7.84,1.84,15.67,3.78,23.41,6,3.53,1,7,2.09,10.51,3.33.73.26,1.47.53,2.19.82.3.11,1.91.79.94.36a28.25,28.25,0,0,1,3.26,1.62c.35.21.67.46,1,.67-1.18-.71-.3-.2,0,.15s.47.53.69.81.33.41.5.62c-.79-1,.11.17.26.36,2.06,2.77,4,5.64,5.94,8.5,2.25,3.3,4.47,6.61,6.71,9.92q1.67,2.44,3.34,4.88c.43.61.83,1.26,1.28,1.86-.48-.64.21.79-.05-.15.3,1.08.09-.92-.06.14l.19-.22c-.36.34-.39.38-.1.1.68,0-.45.11-.64.16-1.1.26-2.2.5-3.3.74-2.18.48-4.37.95-6.55,1.4q-6.9,1.43-13.83,2.7c-3.65.68-7.31,1.34-11,1.91-.72.12-1.44.22-2.17.33l-.21,0-.36.05c-.4,0-.81.06-1.21.12-.73.1-.7-.14.47.14C217.6,289.21,215.29,297.52,220.7,298.81Z" fill="#4f657f"/><path d="M323.52,290.49c.75-.17,1.35,0,.59-.14-.3,0-.63-.05-.93-.08l-1.08-.13c1.54.19-.69-.11-1.08-.17-3.2-.48-6.39-1-9.58-1.62q-11.9-2.14-23.72-4.75c-.78-.18-1.57-.34-2.34-.53-.11,0-1.37-.13-.64-.16l.19.18c-.35-.36-.38-.38-.11-.06-.14-1.09,0,.26,0,.26s0-.27,0-.4c-.1.46-.08.43,0-.09-.5.54.36-.43.41-.5.25-.38.52-.75.78-1.12,2.31-3.34,4.58-6.72,6.86-10.09s4.4-6.53,6.66-9.75c.81-1.17,1.63-2.32,2.47-3.46l.58-.77c-.69.93-.13.17,0,0,.28-.34.55-.69.85-1s1.22-.86,0-.15c.31-.19.6-.42.92-.61a29.25,29.25,0,0,1,3.36-1.68c-1,.44.67-.26.94-.36.72-.29,1.45-.56,2.19-.82,1.64-.59,3.3-1.14,5-1.66,7.7-2.43,15.54-4.44,23.38-6.35l5.58-1.33a42.44,42.44,0,0,0,5.38-1.25c.62-.23.36-.09-.07-.12.87.06-.18-.25.52.21-.13-.08-.91-.67-.18,0,0-.05-.34-.88,0,.13-.16-.46.28-.87-.09-.17.29-.54-.28.44-.27.43-.43.73-.83,1.48-1.25,2.22q-5,9-10.14,18c-3.81,6.72-7.63,13.44-11.55,20.1-1.33,2.26-2.66,4.52-4.05,6.74-.43.69-.88,1.38-1.33,2.06s-.26.27.14-.14c-.54.56.21-.22.57-.38-2.12.95-2.63,4-1.55,5.9,1.28,2.19,3.77,2.51,5.91,1.55,1.41-.64,2.34-2.47,3.14-3.72,1.26-2,2.45-4,3.64-6,3.74-6.33,7.38-12.72,11-19.11q5.67-10,11.28-20a33.75,33.75,0,0,0,2.6-4.94,8.56,8.56,0,0,0-.83-7.4,8.75,8.75,0,0,0-6.86-4c-2.14-.11-4.41.68-6.47,1.16-8.55,2-17.07,4.07-25.5,6.51-3.77,1.09-7.53,2.24-11.21,3.6a37.31,37.31,0,0,0-8.1,3.7,21.64,21.64,0,0,0-5.22,5.61c-2.28,3.1-4.44,6.3-6.6,9.48-2.52,3.72-5,7.46-7.56,11.17-1.24,1.8-2.79,3.59-3.54,5.66a8.66,8.66,0,0,0,.64,7.1c2.41,4.35,8,4.69,12.33,5.62s8.94,1.85,13.42,2.7c6.72,1.29,13.51,2.72,20.33,3.39a7,7,0,0,0,2.46-.11C331.22,297.53,328.93,289.2,323.52,290.49Z" fill="#4f657f"/><path d="M266.44,288l15.08.85a4.33,4.33,0,0,0,4.31-4.32,4.4,4.4,0,0,0-4.31-4.31l-15.08-.85a4.33,4.33,0,0,0-4.31,4.31,4.41,4.41,0,0,0,4.31,4.32Z" fill="#4f657f"/><path d="M344.66,249.22A26.93,26.93,0,0,0,332,265.38c-2.09,7.33-.52,14.36,2.7,21.09s7.75,13.16,7.42,20.82c-.38,9-6.11,17-5.38,26.25a15.42,15.42,0,0,0,5.35,11A11.36,11.36,0,0,0,352.77,347c2.64-.83,1.51-5-1.14-4.16-2.95.93-5.76-.38-7.79-2.55-2.45-2.63-3-6.23-2.8-9.71.52-8,5-15.23,5.39-23.33.59-13.77-13-23.89-10.94-37.78a22.83,22.83,0,0,1,11.34-16.57c2.43-1.34.26-5.07-2.17-3.72Z" fill="#7c7a79"/></g></svg>